<svg width="277" height="358" viewBox="0 0 277 358" fill="none" xmlns="http://www.w3.org/2000/svg">
<path d="M276.2 126C276.2 126.3 276.2 126.7 276.2 127C260.7 134.2 245.1 141.3 229.6 148.6C201.4 161.7 173 174.4 145 188.1C125.1 197.8 106.3 209.6 89.1996 224C75.2996 235.7 63.2996 249 55.6996 265.7C53.8996 269.6 52.5996 273.7 51.0996 277.5C55.1996 282.4 58.7996 286.9 63.8996 290.1C64.4996 289.2 64.8996 288.8 65.1996 288.2C74.3996 265.5 89.9996 247.8 108.9 232.7C129 216.7 151.1 204.2 174.3 193.4C202.9 180 231.9 167.3 260.7 154.3C265.4 152.2 270 150 274.8 147.8C275.4 148.7 275.8 149.4 276.2 150.1C276.2 156.1 276.2 162.1 276.2 168.1C275.7 168.2 275.2 168.1 274.8 168.3C244.6 181.9 214.3 195.1 184.2 209.1C161.7 219.6 140 231.7 120.7 247.6C104 261.3 90.2996 277.4 81.4996 297.4C80.5996 299.5 79.7996 301.6 78.8996 304C84.1996 307.8 89.1996 311.3 94.0996 314.7C94.8996 313.9 95.0996 313.7 95.2996 313.4C95.9996 311.9 96.7996 310.4 97.4996 308.9C106.8 289.1 119.8 272.1 137.3 258.9C147.4 251.3 158 244.3 169 238C202.2 219.1 237.6 204.4 272.7 189.1C273.4 188.8 274.1 188.8 274.9 188.6C274.9 193.6 274.9 198.3 274.9 202.9C274.9 206.1 273.5 207.9 270.4 209.2C256.3 215.2 242.3 221.4 228.3 227.6C207.5 236.9 186.8 246.5 167.3 258.4C154.2 266.5 142 275.6 131.9 287.5C122.5 298.6 115.9 311.1 112.1 325.7C117 328.2 121.9 330.5 126.9 333C127.7 331.2 128.3 330.1 128.8 328.9C136 310.6 147.5 295.6 162.9 283.5C173.4 275.2 184.7 268.1 196.8 262.4C221.3 250.7 246 239.6 270.6 228.2C271.1 228 271.7 228 273.1 227.7C271.2 233.3 269.5 238.1 267.9 243C267 245.9 265.2 247.6 262.4 249C247.7 256.1 233.1 263.3 218.5 270.6C203.3 278.2 188.3 286.1 174.6 296.3C162.8 305.1 153.2 315.8 147.3 329.5C146.6 331.1 146.1 332.8 145.5 334.5C145.7 334.7 146 335 146.2 335.2C147.6 334.5 149 333.8 150.4 333C162.7 325.7 175 318.4 187.2 310.9C207.5 298.4 227.7 285.8 247.9 273.2C249.3 272.3 250.8 271.7 252.3 270.9C252.5 271.2 252.7 271.5 252.9 271.8C252.1 273 251.3 274.3 250.5 275.5C240.8 290 229.3 302.8 215.9 314C194.2 332.1 169.7 345.4 144 356.7C140.6 358.2 137.5 357.9 134.4 356.3C120.7 349.5 106.6 343.3 93.3996 335.7C67.9996 321.2 45.6996 302.8 28.0996 279.2C14.1996 260.6 4.99961 240 1.59961 216.9C1.19961 213.8 0.599609 210.7 0.0996094 207.6C0.0996094 189.3 0.0996094 170.9 0.0996094 152.6C0.399609 150.7 0.799609 148.7 1.09961 146.8C2.49961 137.1 3.29962 127.3 5.49962 117.7C11.1996 92.5 25.0996 73.5 49.2996 63.1C59.0996 58.9 68.9996 54.9 78.9996 51.4C90.3996 47.4 102.1 45 114.3 45.8C126.8 46.7 137.2 51.4 143.7 62.7C144.2 63.5 144.9 64.2 145.7 65.3C160.3 59.1 174.8 52.9 189.7 46.6C189.7 53.4 189.7 59.5 189.7 65.7C188 66.5 186.5 67.2 185 67.8C154.3 81 123.5 94.1 92.8996 107.5C87.2996 109.9 81.7996 112.9 76.6996 116.2C67.9996 121.8 62.8996 129.9 60.7996 140C58.5996 150.7 58.7996 161.5 58.9996 172.3C58.9996 172.7 59.3996 173.1 59.5996 173.4C60.0996 173.3 60.4996 173.3 60.6996 173.2C61.6996 172.6 62.6996 172 63.6996 171.4C93.7996 151 125.6 133.5 158.7 118.5C196.3 101.6 234 84.8 271.7 68C272.6 67.6 273.5 67.3 274.9 66.9C274.9 73.9 274.9 80.4 274.9 87.2C273.2 88.1 271.6 88.9 269.9 89.7C259.4 94.3 248.9 99.1 238.4 103.5C206.4 117 174.1 130 142.9 145.5C117.1 158.3 92.0996 172.6 68.5996 189.4C51.4996 201.6 37.9996 217 29.5996 236.6C28.9996 238 27.9996 239.6 28.2996 240.8C30.2996 246.9 32.9996 252.7 37.1996 258.4C37.8996 256.9 38.2996 256.2 38.5996 255.5C42.2996 246.1 47.6996 237.8 54.1996 230C62.3996 220.3 71.7996 211.8 81.8996 204.1C105.8 185.8 131.9 171 159.1 158.3C191.6 143 224.6 128.7 257.4 114C263.1 111.4 268.9 108.9 275.5 105.9C275.5 110.1 275.4 113.5 275.5 117C275.6 120.1 275.9 123 276.2 126ZM20.4996 217.2C25.8996 209.6 30.8996 202.4 36.1996 195.5C38.3996 192.7 39.4996 190.1 39.3996 186.5C39.2996 170.7 38.8996 154.9 41.2996 139.2C43.4996 124.6 49.8996 112.6 62.1996 104.4C69.0996 99.8 76.4996 95.8 83.9996 92.3C96.9996 86.3 110.2 80.9 123.3 75.2C124.9 74.5 126.5 73.7 128.1 72.8C125.9 67.9 122.3 65.4 117.9 64C112.2 62.2 106.4 62.3 100.6 63.5C87.1996 66.3 74.5996 71.6 62.2996 77.6C45.0996 86.1 33.2996 99.6 26.5996 117.5C22.4996 128.3 20.0996 139.6 19.9996 151.1C19.6996 171.9 19.9996 192.7 20.0996 213.5C20.1996 214.7 20.3996 215.8 20.4996 217.2Z" fill="url(#paint0_linear_261_287)"/>
<path d="M2.99962 51.1C2.99962 43.8 2.99962 37.2 2.99962 30C62.5996 3.3 125 -3.2 189.7 3.5C189.7 10.2 189.7 16.2 189.7 22.6C125 15.3 62.6996 22.3 2.99962 51.1Z" fill="url(#paint1_linear_261_287)"/>
<path d="M224.3 62.3C220.3 59.8 216.9 57.7 213.2 55.4C216.8 49.8 220.3 44.4 224.2 38.2C216.9 37.2 210.4 38.2 203.6 37.5C203.6 33.4 203.6 29.5 203.6 24.9C210.3 24.8 216.8 24.7 224.4 24.6C220.3 18.2 216.9 12.8 213.2 7.10001C216.9 4.70001 220.3 2.5 224.2 0C228.2 6.2 232.1 12.1 236.5 18.8C240.7 12.3 244.6 6.4 248.8 0C252.5 2.3 256 4.50001 259.9 6.90001C256.3 12.6 252.8 18.1 248.7 24.5C256.2 24.5 262.7 24.5 269.5 24.5C269.5 29.3 269.5 33.2 269.5 37.6C262.9 37.6 256.5 37.6 248.9 37.6C252.4 44.2 256.4 49.4 259.8 55.4C256.2 57.7 252.7 59.9 248.8 62.3C244.7 56 240.8 50.1 236.4 43.5C232.4 50 228.5 55.9 224.3 62.3Z" fill="url(#paint2_linear_261_287)"/>
<defs>
<linearGradient id="paint0_linear_261_287" x1="276.2" y1="178.839" x2="0.0996094" y2="178.839" gradientUnits="userSpaceOnUse">
<stop stop-color="#DB4528" stop-opacity="0.964706"/>
<stop offset="1" stop-color="#A82F62"/>
</linearGradient>
<linearGradient id="paint1_linear_261_287" x1="276.2" y1="178.839" x2="0.0996094" y2="178.839" gradientUnits="userSpaceOnUse">
<stop stop-color="#DB4528" stop-opacity="0.964706"/>
<stop offset="1" stop-color="#A82F62"/>
</linearGradient>
<linearGradient id="paint2_linear_261_287" x1="276.2" y1="178.839" x2="0.0996094" y2="178.839" gradientUnits="userSpaceOnUse">
<stop stop-color="#DB4528" stop-opacity="0.964706"/>
<stop offset="1" stop-color="#A82F62"/>
</linearGradient>
</defs>
</svg>
